# xmcd
#
# Track frame offsets:
#	150
#	15008
#	27757
#	44487
#	59323
#	73970
#	88912
#	102803
#	117455
#	131832
#	146311
#	161212
#	177131
#	192504
#	210026
#	223426
#	236116
#	252252
#
# Disc length: 4002 seconds
#
# Revision: 1
# Processed by: cddbd v1.5.2PL0 Copyright (c) Steve Scherf et al.
# Submitted via: audiograbber 1.83.01
#
DISCID=090fa012
DTITLE=Annett Louisan - Das optimale Leben
DYEAR=2007
DGENRE=
TTITLE0=Das wäre nie passiert
TTITLE1=kleine Zwischenfälle
TTITLE2=Was haben wir gesucht
TTITLE3=Er
TTITLE4=Die Wahrheit
TTITLE5=Wenn man sich nicht mehr liebt
TTITLE6=ich ...be Dich
TTITLE7=Die sein
TTITLE8=Mein innerer Schweinehund
TTITLE9=Gendefekt
TTITLE10=Unbekümmert
TTITLE11=Rosenkrieg
TTITLE12=Dings
TTITLE13=Ende Dezember
TTITLE14=Das optimale Leben
TTITLE15=Die ehrliche Haut
TTITLE16=Wenn Du Dich traust
TTITLE17=Der kleine Unterschied
EXTD=
EXTT0=
EXTT1=
EXTT2=
EXTT3=
EXTT4=
EXTT5=
EXTT6=
EXTT7=
EXTT8=
EXTT9=
EXTT10=
EXTT11=
EXTT12=
EXTT13=
EXTT14=
EXTT15=
EXTT16=
EXTT17=
PLAYORDER=
